<svg width="480" height="480" viewBox="0 0 480 480" xmlns="http://www.w3.org/2000/svg">
    <defs>
        <linearGradient id="grad1" x1="0%" y1="0%" x2="100%" y2="100%">
            <stop offset="0%" stop-color="#3a0ca3" />
            <stop offset="100%" stop-color="#4361ee" />
        </linearGradient>
    </defs>

    <!-- Подложка -->
    <circle cx="240" cy="240" r="240" fill="url(#grad1)" opacity="0.9" />

    <!-- Координаты 10 вершин правильного 10-угольника -->
    <!-- Центр (240,240), радиус 180 -->
    <polygon
            points="
      240,60
      353.14,95.1
      420.42,187.06
      420.42,292.94
      353.14,384.9
      240,420
      126.86,384.9
      59.58,292.94
      59.58,187.06
      126.86,95.1
    "
            fill="rgba(255, 255, 255, 0.12)"
            stroke="#edf2f7"
            stroke-width="3"
    />

    <!-- Вершины -->
    <circle cx="240" cy="60" r="6" fill="#edf2f7" />
    <circle cx="353.14" cy="95.1" r="6" fill="#edf2f7" />
    <circle cx="420.42" cy="187.06" r="6" fill="#edf2f7" />
    <circle cx="420.42" cy="292.94" r="6" fill="#edf2f7" />
    <circle cx="353.14" cy="384.9" r="6" fill="#edf2f7" />
    <circle cx="240" cy="420" r="6" fill="#edf2f7" />
    <circle cx="126.86" cy="384.9" r="6" fill="#edf2f7" />
    <circle cx="59.58" cy="292.94" r="6" fill="#edf2f7" />
    <circle cx="59.58" cy="187.06" r="6" fill="#edf2f7" />
    <circle cx="126.86" cy="95.1" r="6" fill="#edf2f7" />

    <!-- Все линии между всеми вершинами -->
    <line x1="240" y1="60"    x2="353.14" y2="95.1" stroke="#edf2f7" stroke-width="2" />
    <line x1="240" y1="60"    x2="420.42" y2="187.06" stroke="#edf2f7" stroke-width="2" />
    <line x1="240" y1="60"    x2="420.42" y2="292.94" stroke="#edf2f7" stroke-width="2" />
    <line x1="240" y1="60"    x2="353.14" y2="384.9" stroke="#edf2f7" stroke-width="2" />
    <line x1="240" y1="60"    x2="240" y2="420" stroke="#edf2f7" stroke-width="2" />
    <line x1="240" y1="60"    x2="126.86" y2="384.9" stroke="#edf2f7" stroke-width="2" />
    <line x1="240" y1="60"    x2="59.58" y2="292.94" stroke="#edf2f7" stroke-width="2" />
    <line x1="240" y1="60"    x2="59.58" y2="187.06" stroke="#edf2f7" stroke-width="2" />
    <line x1="240" y1="60"    x2="126.86" y2="95.1" stroke="#edf2f7" stroke-width="2" />

    <line x1="353.14" y1="95.1"   x2="420.42" y2="187.06" stroke="#edf2f7" stroke-width="2" />
    <line x1="353.14" y1="95.1"   x2="420.42" y2="292.94" stroke="#edf2f7" stroke-width="2" />
    <line x1="353.14" y1="95.1"   x2="353.14" y2="384.9" stroke="#edf2f7" stroke-width="2" />
    <line x1="353.14" y1="95.1"   x2="240" y2="420" stroke="#edf2f7" stroke-width="2" />
    <line x1="353.14" y1="95.1"   x2="126.86" y2="384.9" stroke="#edf2f7" stroke-width="2" />
    <line x1="353.14" y1="95.1"   x2="59.58" y2="292.94" stroke="#edf2f7" stroke-width="2" />
    <line x1="353.14" y1="95.1"   x2="59.58" y2="187.06" stroke="#edf2f7" stroke-width="2" />
    <line x1="353.14" y1="95.1"   x2="126.86" y2="95.1" stroke="#edf2f7" stroke-width="2" />

    <line x1="420.42" y1="187.06"   x2="420.42" y2="292.94" stroke="#edf2f7" stroke-width="2" />
    <line x1="420.42" y1="187.06"   x2="353.14" y2="384.9" stroke="#edf2f7" stroke-width="2" />
    <line x1="420.42" y1="187.06"   x2="240" y2="420" stroke="#edf2f7" stroke-width="2" />
    <line x1="420.42" y1="187.06"   x2="126.86" y2="384.9" stroke="#edf2f7" stroke-width="2" />
    <line x1="420.42" y1="187.06"   x2="59.58" y2="292.94" stroke="#edf2f7" stroke-width="2" />
    <line x1="420.42" y1="187.06"   x2="59.58" y2="187.06" stroke="#edf2f7" stroke-width="2" />
    <line x1="420.42" y1="187.06"   x2="126.86" y2="95.1" stroke="#edf2f7" stroke-width="2" />

    <line x1="420.42" y1="292.94"  x2="353.14" y2="384.9" stroke="#edf2f7" stroke-width="2" />
    <line x1="420.42" y1="292.94"  x2="240" y2="420" stroke="#edf2f7" stroke-width="2" />
    <line x1="420.42" y1="292.94"  x2="126.86" y2="384.9" stroke="#edf2f7" stroke-width="2" />
    <line x1="420.42" y1="292.94"  x2="59.58" y2="292.94" stroke="#edf2f7" stroke-width="2" />
    <line x1="420.42" y1="292.94"  x2="59.58" y2="187.06" stroke="#edf2f7" stroke-width="2" />
    <line x1="420.42" y1="292.94"  x2="126.86" y2="95.1" stroke="#edf2f7" stroke-width="2" />

    <line x1="353.14" y1="384.9"  x2="240" y2="420" stroke="#edf2f7" stroke-width="2" />
    <line x1="353.14" y1="384.9"  x2="126.86" y2="384.9" stroke="#edf2f7" stroke-width="2" />
    <line x1="353.14" y1="384.9"  x2="59.58" y2="292.94" stroke="#edf2f7" stroke-width="2" />
    <line x1="353.14" y1="384.9"  x2="59.58" y2="187.06" stroke="#edf2f7" stroke-width="2" />
    <line x1="353.14" y1="384.9"  x2="126.86" y2="95.1" stroke="#edf2f7" stroke-width="2" />

    <line x1="240" y1="420"    x2="126.86" y2="384.9" stroke="#edf2f7" stroke-width="2" />
    <line x1="240" y1="420"    x2="59.58" y2="292.94" stroke="#edf2f7" stroke-width="2" />
    <line x1="240" y1="420"    x2="59.58" y2="187.06" stroke="#edf2f7" stroke-width="2" />
    <line x1="240" y1="420"    x2="126.86" y2="95.1" stroke="#edf2f7" stroke-width="2" />

    <line x1="126.86" y1="384.9" x2="59.58" y2="292.94" stroke="#edf2f7" stroke-width="2" />
    <line x1="126.86" y1="384.9" x2="59.58" y2="187.06" stroke="#edf2f7" stroke-width="2" />
    <line x1="126.86" y1="384.9" x2="126.86" y2="95.1" stroke="#edf2f7" stroke-width="2" />

    <line x1="59.58" y1="292.94" x2="59.58" y2="187.06" stroke="#edf2f7" stroke-width="2" />
    <line x1="59.58" y1="292.94" x2="126.86" y2="95.1" stroke="#edf2f7" stroke-width="2" />

    <line x1="59.58" y1="187.06" x2="126.86" y2="95.1" stroke="#edf2f7" stroke-width="2" />
</svg>
