<svg width="240" height="240" viewBox="0 0 240 240" xmlns="http://www.w3.org/2000/svg">
    <defs>
        <linearGradient id="grad1" x1="0%" y1="0%" x2="100%" y2="100%">
            <stop offset="0%" stop-color="#3a0ca3" />
            <stop offset="100%" stop-color="#4361ee" />
        </linearGradient>
    </defs>

    <!-- Подложка -->
    <circle cx="120" cy="120" r="120" fill="url(#grad1)" opacity="0.9" />

    <!-- 10-угольник -->
    <polygon
            points="
      120,30
      180,50
      210,100
      200,160
      150,200
      90,200
      40,160
      30,100
      60,50
      120,30
    "
            fill="rgba(255, 255, 255, 0.12)"
            stroke="#edf2f7"
            stroke-width="1.5"
    />

    <!-- Вершины -->
    <circle cx="120" cy="30" r="3" fill="#edf2f7" />
    <circle cx="180" cy="50" r="3" fill="#edf2f7" />
    <circle cx="210" cy="100" r="3" fill="#edf2f7" />
    <circle cx="200" cy="160" r="3" fill="#edf2f7" />
    <circle cx="150" cy="200" r="3" fill="#edf2f7" />
    <circle cx="90" cy="200" r="3" fill="#edf2f7" />
    <circle cx="40" cy="160" r="3" fill="#edf2f7" />
    <circle cx="30" cy="100" r="3" fill="#edf2f7" />
    <circle cx="60" cy="50" r="3" fill="#edf2f7" />
    <circle cx="120" cy="30" r="3" fill="#edf2f7" />

    <!-- Линии между всеми вершинами -->
    <!-- Перебираем пары вершин и рисуем линии -->
    <!-- Ниже ручной список, т.к. SVG не поддерживает циклы -->

    <line x1="120" y1="30"  x2="180" y2="50" stroke="#edf2f7" stroke-width="1" />
    <line x1="120" y1="30"  x2="210" y2="100" stroke="#edf2f7" stroke-width="1" />
    <line x1="120" y1="30"  x2="200" y2="160" stroke="#edf2f7" stroke-width="1" />
    <line x1="120" y1="30"  x2="150" y2="200" stroke="#edf2f7" stroke-width="1" />
    <line x1="120" y1="30"  x2="90"  y2="200" stroke="#edf2f7" stroke-width="1" />
    <line x1="120" y1="30"  x2="40"  y2="160" stroke="#edf2f7" stroke-width="1" />
    <line x1="120" y1="30"  x2="30"  y2="100" stroke="#edf2f7" stroke-width="1" />
    <line x1="120" y1="30"  x2="60"  y2="50" stroke="#edf2f7" stroke-width="1" />

    <line x1="180" y1="50"  x2="210" y2="100" stroke="#edf2f7" stroke-width="1" />
    <line x1="180" y1="50"  x2="200" y2="160" stroke="#edf2f7" stroke-width="1" />
    <line x1="180" y1="50"  x2="150" y2="200" stroke="#edf2f7" stroke-width="1" />
    <line x1="180" y1="50"  x2="90"  y2="200" stroke="#edf2f7" stroke-width="1" />
    <line x1="180" y1="50"  x2="40"  y2="160" stroke="#edf2f7" stroke-width="1" />
    <line x1="180" y1="50"  x2="30"  y2="100" stroke="#edf2f7" stroke-width="1" />
    <line x1="180" y1="50"  x2="60"  y2="50" stroke="#edf2f7" stroke-width="1" />

    <line x1="210" y1="100" x2="200" y2="160" stroke="#edf2f7" stroke-width="1" />
    <line x1="210" y1="100" x2="150" y2="200" stroke="#edf2f7" stroke-width="1" />
    <line x1="210" y1="100" x2="90"  y2="200" stroke="#edf2f7" stroke-width="1" />
    <line x1="210" y1="100" x2="40"  y2="160" stroke="#edf2f7" stroke-width="1" />
    <line x1="210" y1="100" x2="30"  y2="100" stroke="#edf2f7" stroke-width="1" />
    <line x1="210" y1="100" x2="60"  y2="50" stroke="#edf2f7" stroke-width="1" />

    <line x1="200" y1="160" x2="150" y2="200" stroke="#edf2f7" stroke-width="1" />
    <line x1="200" y1="160" x2="90"  y2="200" stroke="#edf2f7" stroke-width="1" />
    <line x1="200" y1="160" x2="40"  y2="160" stroke="#edf2f7" stroke-width="1" />
    <line x1="200" y1="160" x2="30"  y2="100" stroke="#edf2f7" stroke-width="1" />
    <line x1="200" y1="160" x2="60"  y2="50" stroke="#edf2f7" stroke-width="1" />

    <line x1="150" y1="200" x2="90"  y2="200" stroke="#edf2f7" stroke-width="1" />
    <line x1="150" y1="200" x2="40"  y2="160" stroke="#edf2f7" stroke-width="1" />
    <line x1="150" y1="200" x2="30"  y2="100" stroke="#edf2f7" stroke-width="1" />
    <line x1="150" y1="200" x2="60"  y2="50" stroke="#edf2f7" stroke-width="1" />

    <line x1="90" y1="200"  x2="40"  y2="160" stroke="#edf2f7" stroke-width="1" />
    <line x1="90" y1="200"  x2="30"  y2="100" stroke="#edf2f7" stroke-width="1" />
    <line x1="90" y1="200"  x2="60"  y2="50" stroke="#edf2f7" stroke-width="1" />

    <line x1="40" y1="160"  x2="30"  y2="100" stroke="#edf2f7" stroke-width="1" />
    <line x1="40" y1="160"  x2="60"  y2="50" stroke="#edf2f7" stroke-width="1" />

    <line x1="30" y1="100"  x2="60"  y2="50" stroke="#edf2f7" stroke-width="1" />
</svg>
